<mxfile host="65bd71144e">
    <diagram id="CGz5gvUMxi6If3MVP1VV" name="image">
        <mxGraphModel dx="-1734" dy="2355" grid="1" gridSize="10" guides="1" tooltips="1" connect="1" arrows="1" fold="1" page="1" pageScale="1" pageWidth="827" pageHeight="1169" math="0" shadow="0">
            <root>
                <mxCell id="0"/>
                <mxCell id="1" parent="0"/>
                <mxCell id="mNiAzSfXenX0VxuWbp-_-2" value="" style="rounded=0;whiteSpace=wrap;html=1;fillColor=#dae8fc;strokeColor=#6c8ebf;shadow=0;" parent="1" vertex="1">
                    <mxGeometry x="2630" y="-930" width="580" height="280" as="geometry"/>
                </mxCell>
                <mxCell id="mNiAzSfXenX0VxuWbp-_-18" value="Authentication&lt;br&gt;Middleware" style="rounded=1;whiteSpace=wrap;html=1;fontSize=14;strokeColor=#b85450;fillColor=#f8cecc;" parent="1" vertex="1">
                    <mxGeometry x="2770" y="-920" width="100" height="160" as="geometry"/>
                </mxCell>
                <mxCell id="3" value="Handler&lt;br&gt;" style="rounded=1;whiteSpace=wrap;html=1;fontSize=14;strokeColor=#d6b656;fillColor=#fff2cc;" parent="1" vertex="1">
                    <mxGeometry x="3120" y="-920" width="80" height="160" as="geometry"/>
                </mxCell>
                <mxCell id="5" value="middleware" style="rounded=1;whiteSpace=wrap;html=1;fontSize=14;strokeColor=#6c8ebf;fillColor=default;" parent="1" vertex="1">
                    <mxGeometry x="2640" y="-920" width="80" height="160" as="geometry"/>
                </mxCell>
                <mxCell id="7" value="..." style="rounded=1;whiteSpace=wrap;html=1;fontSize=14;strokeColor=#6c8ebf;fillColor=default;" parent="1" vertex="1">
                    <mxGeometry x="2730" y="-920" width="30" height="160" as="geometry"/>
                </mxCell>
                <mxCell id="10" value="..." style="rounded=1;whiteSpace=wrap;html=1;fontSize=14;strokeColor=#6c8ebf;fillColor=default;" parent="1" vertex="1">
                    <mxGeometry x="3050" y="-920" width="30" height="160" as="geometry"/>
                </mxCell>
                <mxCell id="16" value="" style="shape=flexArrow;endArrow=classic;html=1;" parent="1" edge="1">
                    <mxGeometry width="50" height="50" relative="1" as="geometry">
                        <mxPoint x="2560" y="-870" as="sourcePoint"/>
                        <mxPoint x="2620" y="-870" as="targetPoint"/>
                    </mxGeometry>
                </mxCell>
                <mxCell id="17" value="Request" style="text;html=1;strokeColor=none;fillColor=none;align=center;verticalAlign=middle;whiteSpace=wrap;rounded=0;" parent="1" vertex="1">
                    <mxGeometry x="2560" y="-910" width="60" height="20" as="geometry"/>
                </mxCell>
                <mxCell id="18" value="" style="shape=flexArrow;endArrow=classic;html=1;" parent="1" edge="1">
                    <mxGeometry width="50" height="50" relative="1" as="geometry">
                        <mxPoint x="2620" y="-810" as="sourcePoint"/>
                        <mxPoint x="2560" y="-810" as="targetPoint"/>
                    </mxGeometry>
                </mxCell>
                <mxCell id="19" value="Response" style="text;html=1;strokeColor=none;fillColor=none;align=center;verticalAlign=middle;whiteSpace=wrap;rounded=0;" parent="1" vertex="1">
                    <mxGeometry x="2560" y="-790" width="60" height="20" as="geometry"/>
                </mxCell>
                <mxCell id="24" value="" style="shape=flexArrow;endArrow=classic;html=1;fillColor=#f5f5f5;strokeColor=#666666;entryX=0;entryY=0.25;entryDx=0;entryDy=0;exitX=0.625;exitY=0.188;exitDx=0;exitDy=0;exitPerimeter=0;endWidth=11.428571428571429;endSize=5.033333333333333;" parent="1" source="5" target="30" edge="1">
                    <mxGeometry width="50" height="50" relative="1" as="geometry">
                        <mxPoint x="2690" y="-880" as="sourcePoint"/>
                        <mxPoint x="3140" y="-880" as="targetPoint"/>
                    </mxGeometry>
                </mxCell>
                <mxCell id="30" value="Authenticate" style="rounded=1;whiteSpace=wrap;html=1;fontSize=14;strokeColor=#b85450;fillColor=default;" parent="1" vertex="1">
                    <mxGeometry x="2780" y="-900" width="80" height="40" as="geometry"/>
                </mxCell>
                <mxCell id="37" value="Unauthorized" style="shape=flexArrow;endArrow=classic;html=1;fillColor=#f8cecc;strokeColor=#b85450;entryX=0;entryY=0.25;entryDx=0;entryDy=0;labelBackgroundColor=none;endWidth=10.476190476190476;endSize=5.176190476190476;" parent="1" edge="1">
                    <mxGeometry width="50" height="50" relative="1" as="geometry">
                        <mxPoint x="2780" y="-870" as="sourcePoint"/>
                        <mxPoint x="2690" y="-870" as="targetPoint"/>
                    </mxGeometry>
                </mxCell>
                <mxCell id="41" value="Authorization&lt;br&gt;Middleware" style="rounded=1;whiteSpace=wrap;html=1;fontSize=14;strokeColor=#9673a6;fillColor=#e1d5e7;" parent="1" vertex="1">
                    <mxGeometry x="2940" y="-920" width="100" height="160" as="geometry"/>
                </mxCell>
                <mxCell id="44" value="Authorize" style="rounded=1;whiteSpace=wrap;html=1;fontSize=14;strokeColor=#9673a6;fillColor=default;" parent="1" vertex="1">
                    <mxGeometry x="2950" y="-900" width="80" height="40" as="geometry"/>
                </mxCell>
                <mxCell id="52" value="Forbidden" style="shape=flexArrow;endArrow=classic;html=1;fillColor=#f8cecc;strokeColor=#b85450;entryX=0;entryY=0.25;entryDx=0;entryDy=0;labelBackgroundColor=none;endWidth=10.476190476190476;endSize=5.176190476190476;" parent="1" edge="1">
                    <mxGeometry width="50" height="50" relative="1" as="geometry">
                        <mxPoint x="2950" y="-860.48" as="sourcePoint"/>
                        <mxPoint x="2860" y="-860.48" as="targetPoint"/>
                    </mxGeometry>
                </mxCell>
                <mxCell id="35" value="Authorized" style="shape=flexArrow;endArrow=classic;html=1;fillColor=#d5e8d4;strokeColor=#82b366;labelBackgroundColor=none;" parent="1" edge="1">
                    <mxGeometry width="50" height="50" relative="1" as="geometry">
                        <mxPoint x="3030" y="-880" as="sourcePoint"/>
                        <mxPoint x="3150" y="-880.34" as="targetPoint"/>
                    </mxGeometry>
                </mxCell>
                <mxCell id="53" value="Authenticated" style="shape=flexArrow;endArrow=classic;html=1;fillColor=#d5e8d4;strokeColor=#82b366;labelBackgroundColor=none;endWidth=10.952380952380953;endSize=5.238095238095238;" parent="1" edge="1">
                    <mxGeometry width="50" height="50" relative="1" as="geometry">
                        <mxPoint x="2860" y="-880" as="sourcePoint"/>
                        <mxPoint x="2950" y="-880.24" as="targetPoint"/>
                    </mxGeometry>
                </mxCell>
                <mxCell id="54" value="" style="endArrow=classic;html=1;dashed=1;fillColor=#f8cecc;strokeColor=#000000;dashPattern=1 1;strokeWidth=2;" parent="1" edge="1">
                    <mxGeometry width="50" height="50" relative="1" as="geometry">
                        <mxPoint x="2850" y="-890.57" as="sourcePoint"/>
                        <mxPoint x="2960" y="-890.57" as="targetPoint"/>
                        <Array as="points">
                            <mxPoint x="2910" y="-910"/>
                        </Array>
                    </mxGeometry>
                </mxCell>
                <mxCell id="55" value="Propagate authenticated client's information via context." style="text;html=1;align=center;verticalAlign=middle;whiteSpace=wrap;rounded=0;fillColor=default;fillOpacity=70;" parent="1" vertex="1">
                    <mxGeometry x="2840" y="-960" width="130" height="50" as="geometry"/>
                </mxCell>
                <mxCell id="27" value="" style="shape=flexArrow;endArrow=classic;html=1;fillColor=#f5f5f5;strokeColor=#666666;" parent="1" edge="1">
                    <mxGeometry width="50" height="50" relative="1" as="geometry">
                        <mxPoint x="3140" y="-800.24" as="sourcePoint"/>
                        <mxPoint x="2690" y="-800.24" as="targetPoint"/>
                    </mxGeometry>
                </mxCell>
                <mxCell id="56" value="Authentication&lt;br&gt;Handler" style="rounded=1;whiteSpace=wrap;html=1;fontSize=14;strokeColor=#b85450;fillColor=#f8cecc;arcSize=6;" parent="1" vertex="1">
                    <mxGeometry x="2750" y="-740" width="100" height="60" as="geometry"/>
                </mxCell>
                <mxCell id="57" value="Authentication&lt;br&gt;Handler" style="rounded=1;whiteSpace=wrap;html=1;fontSize=14;strokeColor=#b85450;fillColor=#f8cecc;arcSize=6;" parent="1" vertex="1">
                    <mxGeometry x="2770" y="-730" width="100" height="60" as="geometry"/>
                </mxCell>
                <mxCell id="58" value="Authentication&lt;br&gt;Handler" style="rounded=1;whiteSpace=wrap;html=1;fontSize=14;strokeColor=#b85450;fillColor=#f8cecc;arcSize=6;" parent="1" vertex="1">
                    <mxGeometry x="2790" y="-720" width="100" height="60" as="geometry"/>
                </mxCell>
                <mxCell id="59" style="edgeStyle=none;html=1;exitX=0.25;exitY=1;exitDx=0;exitDy=0;entryX=0.324;entryY=1.003;entryDx=0;entryDy=0;entryPerimeter=0;" parent="1" source="mNiAzSfXenX0VxuWbp-_-18" target="mNiAzSfXenX0VxuWbp-_-18" edge="1">
                    <mxGeometry relative="1" as="geometry">
                        <mxPoint x="2795" y="-760" as="sourcePoint"/>
                        <mxPoint x="2803.3" y="-758.7199999999999" as="targetPoint"/>
                        <Array as="points">
                            <mxPoint x="2780" y="-730"/>
                        </Array>
                    </mxGeometry>
                </mxCell>
                <mxCell id="60" style="edgeStyle=none;html=1;exitX=0.407;exitY=1;exitDx=0;exitDy=0;entryX=0.527;entryY=0.996;entryDx=0;entryDy=0;entryPerimeter=0;exitPerimeter=0;" parent="1" source="mNiAzSfXenX0VxuWbp-_-18" target="mNiAzSfXenX0VxuWbp-_-18" edge="1">
                    <mxGeometry relative="1" as="geometry">
                        <mxPoint x="2810.6000000000004" y="-759.1999999999999" as="sourcePoint"/>
                        <mxPoint x="2822.6000000000004" y="-759.68" as="targetPoint"/>
                        <Array as="points">
                            <mxPoint x="2800" y="-720"/>
                        </Array>
                    </mxGeometry>
                </mxCell>
                <mxCell id="61" style="edgeStyle=none;html=1;exitX=0.635;exitY=0.999;exitDx=0;exitDy=0;entryX=0.734;entryY=1.001;entryDx=0;entryDy=0;entryPerimeter=0;exitPerimeter=0;" parent="1" source="mNiAzSfXenX0VxuWbp-_-18" target="mNiAzSfXenX0VxuWbp-_-18" edge="1">
                    <mxGeometry relative="1" as="geometry">
                        <mxPoint x="2832.8" y="-760" as="sourcePoint"/>
                        <mxPoint x="2843" y="-758.88" as="targetPoint"/>
                        <Array as="points">
                            <mxPoint x="2840" y="-710"/>
                        </Array>
                    </mxGeometry>
                </mxCell>
                <mxCell id="62" value="Yield authentication to appropriate&amp;nbsp;handlers which implement authentication logics." style="text;html=1;strokeColor=none;fillColor=none;align=center;verticalAlign=middle;whiteSpace=wrap;rounded=0;" parent="1" vertex="1">
                    <mxGeometry x="2900" y="-720" width="150" height="50" as="geometry"/>
                </mxCell>
            </root>
        </mxGraphModel>
    </diagram>
</mxfile>